<?xml version="1.0" encoding="UTF-8" standalone="no"?>
<!-- Creator: CorelDRAW -->

<svg
   xmlns:dc="http://purl.org/dc/elements/1.1/"
   xmlns:cc="http://creativecommons.org/ns#"
   xmlns:rdf="http://www.w3.org/1999/02/22-rdf-syntax-ns#"
   xmlns:svg="http://www.w3.org/2000/svg"
   xmlns="http://www.w3.org/2000/svg"
   xmlns:sodipodi="http://sodipodi.sourceforge.net/DTD/sodipodi-0.dtd"
   xmlns:inkscape="http://www.inkscape.org/namespaces/inkscape"
   xml:space="preserve"
   width="6.82666in"
   height="6.82666in"
   style="shape-rendering:geometricPrecision; text-rendering:geometricPrecision; image-rendering:optimizeQuality; fill-rule:evenodd; clip-rule:evenodd"
   viewBox="0 0 6.82666 6.82666"
   version="1.1"
   id="svg160"
   sodipodi:docname="construction-tools.svg"
   inkscape:version="0.92.5 (2060ec1f9f, 2020-04-08)"><metadata
   id="metadata164"><rdf:RDF><cc:Work
       rdf:about=""><dc:format>image/svg+xml</dc:format><dc:type
         rdf:resource="http://purl.org/dc/dcmitype/StillImage" /></cc:Work></rdf:RDF></metadata><sodipodi:namedview
   pagecolor="#ffffff"
   bordercolor="#666666"
   borderopacity="1"
   objecttolerance="10"
   gridtolerance="10"
   guidetolerance="10"
   inkscape:pageopacity="0"
   inkscape:pageshadow="2"
   inkscape:window-width="2488"
   inkscape:window-height="1376"
   id="namedview162"
   showgrid="false"
   inkscape:zoom="2.0370772"
   inkscape:cx="616.32673"
   inkscape:cy="228.58336"
   inkscape:window-x="1992"
   inkscape:window-y="27"
   inkscape:window-maximized="1"
   inkscape:current-layer="svg160" />
 <defs
   id="defs4">
  <style
   type="text/css"
   id="style2">
   <![CDATA[
    .fil9 {fill:none}
    .fil6 {fill:#931A2B}
    .fil4 {fill:#A11D2B}
    .fil5 {fill:#A7A9AC}
    .fil2 {fill:#AD1F2C}
    .fil3 {fill:#BE1E2D}
    .fil8 {fill:#CACFD1}
    .fil1 {fill:#D1D3D4}
    .fil0 {fill:#DDDDDD}
    .fil7 {fill:#DDE3E7}
   ]]>
  </style>
 </defs>
 <g
   id="Layer_x0020_1"
   transform="translate(0.12272485,-0.03068121)">
  <metadata
   id="CorelCorpID_0Corel-Layer" />
  <g
   id="_743411112">
   <g
   id="Guides">
   </g>
   <g
   id="Layer_2">
   </g>
   <g
   id="Layer_3">
   </g>
   <g
   id="Layer_4">
   </g>
   <g
   id="Layer_5">
   </g>
   <g
   id="Layer_6">
   </g>
   <g
   id="Layer_7">
   </g>
   <g
   id="Layer_8">
   </g>
   <g
   id="Layer_9">
   </g>
   <g
   id="Layer_10">
   </g>
   <g
   id="Layer_11">
   </g>
   <g
   id="Layer_12">
   </g>
   <g
   id="Layer_13">
   </g>
   <g
   id="Layer_14">
   </g>
   <g
   id="Layer_15">
   </g>
   <g
   id="Layer_16">
   </g>
   <g
   id="Layer_17">
   </g>
   <g
   id="Layer_18">
   </g>
   <g
   id="Layer_19">
   </g>
   <g
   id="Layer_20">
   </g>
   <g
   id="Layer_21">
   </g>
   <g
   id="Layer_22">
   </g>
   <g
   id="Layer_23">
    <g
   id="g150">
     <g
   id="g128">
      <g
   id="g36">
       <g
   id="g34">
        <g
   id="g32">
         <g
   id="g30">
          <path
   id="_743416200"
   class="fil0"
   d="m 3.78058,3.28619 1.35743,-1.36923 0.264201,-0.145 7.323e-4,-3.976e-4 0.452665,-0.517402 -0.282799,-0.28523204 -0.513031,0.45659804 -3.347e-4,7.007e-4 -0.143799,0.266465 -1.35837,1.3702 0.223268,0.223299 m 3.15e-5,0 z"
   inkscape:connector-curvature="0"
   style="fill:#ca35b1;fill-opacity:1" />
         </g>
        </g>
       </g>
      </g>
      <g
   id="g45">
       <g
   id="g43">
        <g
   id="g41">
         <g
   id="g39">
          <path
   id="_743415336"
   class="fil1"
   d="m 5.71585,1.11319 0.139732,0.140969 -0.452634,0.517433 -7.323e-4,4.016e-4 -0.264201,0.145031 -1.35746,1.36923 -0.118433,-0.118433 c 3.15e-5,-3.55e-5 2.05493,-2.05583 2.05373,-2.05463 z"
   inkscape:connector-curvature="0"
   style="fill:#ca35b1;fill-opacity:0.97058821" />
         </g>
        </g>
       </g>
      </g>
      <g
   id="g54">
       <g
   id="g52">
        <g
   id="g50">
         <g
   id="g48">
          <rect
   id="_743415096"
   class="fil2"
   transform="rotate(45,-2.3516048,5.4064924)"
   width="0.63538998"
   height="0.42522401"
   x="0"
   y="0"
   style="fill:#ca35b1;fill-opacity:1" />
         </g>
        </g>
       </g>
      </g>
      <g
   id="g63">
       <g
   id="g61">
        <g
   id="g59">
         <g
   id="g57">
          <rect
   id="_743414640"
   class="fil3"
   transform="rotate(45,-2.7793679,4.9874169)"
   width="0.97751999"
   height="2.5033"
   x="0"
   y="0"
   style="fill:#ca34b1;fill-opacity:1" />
         </g>
        </g>
       </g>
      </g>
      <g
   id="g72">
       <g
   id="g70">
        <g
   id="g68">
         <g
   id="g66">
          <rect
   id="_743414328"
   class="fil3"
   transform="rotate(45,-1.7483178,5.4144423)"
   width="0.97751999"
   height="0.42889401"
   x="0"
   y="0"
   style="fill:#be1e2d" />
         </g>
        </g>
       </g>
      </g>
      <g
   id="g81">
       <g
   id="g79">
        <g
   id="g77">
         <g
   id="g75">
          <rect
   id="_743414592"
   class="fil2"
   transform="rotate(45,-3.0237292,5.577429)"
   width="0.48875999"
   height="2.5033"
   x="0"
   y="0"
   style="fill:#ca34b1;fill-opacity:1" />
         </g>
        </g>
       </g>
      </g>
      <g
   id="g90">
       <g
   id="g88">
        <g
   id="g86">
         <g
   id="g84">
          <rect
   id="_743413464"
   class="fil4"
   transform="rotate(45,-2.5104273,5.7899958)"
   width="0.31769699"
   height="0.42522401"
   x="0"
   y="0"
   style="fill:#ca35b1;fill-opacity:1" />
         </g>
        </g>
       </g>
      </g>
      <g
   id="g99">
       <g
   id="g97">
        <g
   id="g95">
         <g
   id="g93">
          <rect
   id="_743413344"
   class="fil2"
   transform="rotate(45,-1.9926962,6.0044474)"
   width="0.48875999"
   height="0.42889401"
   x="0"
   y="0"
   style="fill:#ad1f2c" />
         </g>
        </g>
       </g>
      </g>
      <g
   id="g108">
       <g
   id="g106">
        <g
   id="g104">
         <g
   id="g102">
          <path
   id="_743412984"
   class="fil5"
   d="m 3.66215,3.16775 v 0 L 3.780552,3.286183 M 3.66215,3.16775 Z"
   inkscape:connector-curvature="0"
   style="fill:#a7a9ac" />
         </g>
        </g>
       </g>
      </g>
      <g
   id="g117">
       <g
   id="g115">
        <g
   id="g113">
         <g
   id="g111">
          <rect
   id="_743412864"
   class="fil4"
   transform="rotate(45,-3.3379855,5.3320397)"
   width="0.162929"
   height="1.93961"
   x="0"
   y="0"
   style="fill:#ca35b1;fill-opacity:1" />
         </g>
        </g>
       </g>
      </g>
      <g
   id="g126">
       <g
   id="g124">
        <g
   id="g122">
         <g
   id="g120">
          <rect
   id="_743413224"
   class="fil6"
   transform="rotate(45,-3.3787149,5.430369)"
   width="0.081464604"
   height="1.93961"
   x="0"
   y="0"
   style="fill:#ca35b1;fill-opacity:1" />
         </g>
        </g>
       </g>
      </g>
     </g>
     <g
   id="g148">
      <g
   id="g137">
       <g
   id="g135">
        <g
   id="g133">
         <g
   id="g131">
          <path
   id="_743412480"
   class="fil7"
   d="M 4.73271,4.21738 2.60905,2.09429 C 2.72005,1.789192 2.6532154,1.434022 2.408452,1.189325 2.170885,0.951825 1.829251,0.88186 1.530318,0.979392 l 0.360598,0.360531 c 0.130165,0.130134 0.130165,0.341098 0,0.471232 l -0.080165,0.080165 c -0.130165,0.130134 -0.341201,0.130134 -0.471335,0 l -0.360598,-0.360531 c -0.0975669,0.298835 -0.0275669,0.640398 0.209965,0.877898 0.244768,0.244701 0.600031,0.3115 0.905201,0.200567 l 2.12363,2.12313 c -0.111,0.305098 -0.044165,0.660268 0.200598,0.904965 0.237567,0.2375 0.579201,0.307465 0.878134,0.209933 l -0.360598,-0.360531 c -0.130165,-0.130134 -0.130165,-0.341098 0,-0.471232 L 5.015913,4.935354 c 0.130165,-0.130134 0.341201,-0.130134 0.471335,0 L 5.847846,5.295885 C 5.9454129,4.99705 5.8754129,4.655487 5.637881,4.417987 5.393149,4.173255 5.037881,4.106456 4.732716,4.217389 Z"
   inkscape:connector-curvature="0"
   style="fill:#fe72ff;stroke:none;fill-opacity:1" />
         </g>
        </g>
       </g>
      </g>
      <g
   id="g146">
       <g
   id="g144">
        <g
   id="g142">
         <g
   id="g140">
          <path
   id="_743412336"
   class="fil8"
   d="M 4.73271,4.21738 2.60908,2.09429 C 2.72008,1.789192 2.6532454,1.434022 2.408482,1.189325 2.170915,0.951825 1.829281,0.88186 1.530348,0.979392 l 0.360598,0.360531 c 0.130165,0.130134 0.130165,0.341098 0,0.471232 l -0.039902,0.039902 3.12456,3.12456 0.040299,-0.040268 c 0.130165,-0.130134 0.341201,-0.130134 0.471335,0 l 0.360598,0.360531 c 0.097567,-0.298835 0.027567,-0.640398 -0.209965,-0.877898 -0.244728,-0.244732 -0.599996,-0.311531 -0.905161,-0.200598 z"
   inkscape:connector-curvature="0"
   style="fill:#fe72ff;fill-opacity:1" />
         </g>
        </g>
       </g>
      </g>
     </g>
    </g>
   </g>
   <g
   id="Layer_24">
   </g>
   <g
   id="Layer_25">
   </g>
   <g
   id="Layer_26">
   </g>
  </g>
 </g>
 <rect
   class="fil9"
   width="6.82666"
   height="6.82666"
   id="rect158" />
<path
   style="fill:#fe72ff;stroke-width:0.98199966;fill-opacity:1;stroke:none;stroke-opacity:1;stroke-miterlimit:4;stroke-dasharray:none;fill-rule:nonzero"
   d="m 553.34495,485.17247 c -17.6804,-17.51994 -20.19655,-19.65406 -25.50623,-21.63348 -4.81626,-1.79547 -7.3235,-2.12006 -13.74518,-1.77949 -8.97566,0.47603 -13.94701,2.56592 -20.52322,8.62765 l -4.12834,3.80536 -149.60153,-149.60394 -149.60153,-149.60394 3.72499,-4.12312 c 9.09582,-10.06799 11.49743,-24.1312 6.10962,-35.77633 -2.23716,-4.83535 -6.05738,-9.23878 -21.32198,-24.57707 -10.22807,-10.27745 -18.5965,-18.962352 -18.5965,-19.299779 0,-0.337427 4.25802,-1.380178 9.46226,-2.317223 42.8746,-7.719747 83.42853,18.370782 94.6929,60.921052 3.008,11.36246 3.00212,28.35716 -0.0138,40.15235 l -2.23346,8.7348 101.75611,101.75965 101.75612,101.75964 8.55044,-2.20023 c 11.49219,-2.95723 27.7703,-3.0941 39.2983,-0.33046 37.3211,8.94714 63.01392,41.39426 63.01392,79.57947 0,8.43614 -1.98862,23.85376 -3.23788,25.10302 -0.13172,0.13173 -9.06644,-8.50734 -19.85493,-19.19793 z"
   id="path166"
   inkscape:connector-curvature="0"
   transform="scale(0.01041667)" /></svg>