<?xml version="1.0" encoding="UTF-8" standalone="no"?>
<svg
   xmlns:dc="http://purl.org/dc/elements/1.1/"
   xmlns:cc="http://creativecommons.org/ns#"
   xmlns:rdf="http://www.w3.org/1999/02/22-rdf-syntax-ns#"
   xmlns:svg="http://www.w3.org/2000/svg"
   xmlns="http://www.w3.org/2000/svg"
   viewBox="0 0 160 160"
   height="160"
   width="160"
   id="svg64"
   version="1.1">
  <metadata
     id="metadata70">
    <rdf:RDF>
      <cc:Work
         rdf:about="">
        <dc:format>image/svg+xml</dc:format>
        <dc:type
           rdf:resource="http://purl.org/dc/dcmitype/StillImage" />
        <dc:title></dc:title>
      </cc:Work>
    </rdf:RDF>
  </metadata>
  <defs
     id="defs68" />
  <g
     transform="translate(198.99833,-6.4106845)"
     id="g74" />
  <path
     d="M 130.28964,150.1414 85.414233,116.70945 40.982043,150.30983 58.910456,97.299732 13.224295,65.425296 69.180076,66.095211 85.376665,12.795347 102.03083,66.219472 157.72703,65.15278 112.06409,97.500791 Z"
     id="path145"
     style="fill:#d5abea;fill-opacity:1" />
  <g
     id="layer2" />
  <g
     id="layer1">
    <path
       id="path116"
       d="m 59.049349,148.25221 c -5.794301,-1.27965 -12.661763,-4.59577 -20.24,-9.77337 -1.313345,-0.89731 -1.544727,-1.83464 -0.686877,-2.78255 0.481539,-0.53209 0.387987,-0.62433 -1.520001,-1.49859 -1.118217,-0.51238 -3.187229,-1.63657 -4.597804,-2.4982 -1.410575,-0.86164 -3.210575,-1.83941 -4,-2.17283 -5.733441,-2.42159 -6.246081,-2.84779 -4.668604,-3.8814 1.152627,-0.75523 7.787512,-1.20142 13.233286,-0.88992 2.508,0.14345 4.56,0.24337 4.56,0.22203 0,-0.0213 -0.650054,-1.41108 -1.444566,-3.0883 -1.342749,-2.83458 -2.715434,-7.20085 -2.715434,-8.63734 0,-0.35443 -0.279899,-0.69196 -0.6552,-0.7901 -1.675263,-0.4381 -5.104173,-2.37905 -6.619963,-3.74728 -0.921339,-0.83164 -2.858295,-3.04869 -4.304345,-4.92678 C 20.797975,97.823819 14.947582,92.701387 8.5820815,89.071195 7.1370844,88.247128 5.8723637,87.368808 5.7715911,87.119378 5.3438969,86.06076 6.2302528,86.017058 10.962739,86.863432 c 2.599635,0.464928 6.38261,0.907523 8.40661,0.983546 2.112416,0.07934 4.49787,0.37352 5.6,0.690601 3.665441,1.054551 3.237422,1.696029 3.454003,-5.17656 0.104483,-3.315472 0.353191,-6.903885 0.552683,-7.974246 l 0.362715,-1.946115 -2.240956,-2.163463 c -1.232526,-1.189904 -2.642966,-2.931289 -3.134311,-3.869747 -0.491346,-0.938458 -0.975174,-1.655722 -1.075174,-1.593917 -0.1,0.0618 -0.195716,-0.129059 -0.212703,-0.424137 -0.01699,-0.295079 -0.371676,-1.760506 -0.788197,-3.256506 -0.707192,-2.539997 -0.757334,-3.270598 -0.757685,-11.04 -3.52e-4,-8.081296 0.01799,-8.322195 0.639625,-8.396534 1.752637,-0.209584 5.881484,5.536051 8.189791,11.39678 1.286372,3.266064 1.261549,3.272375 1.731615,-0.440246 0.354222,-2.79768 2.084225,-8.212963 3.680256,-11.52 2.819196,-5.841475 5.602319,-9.522966 12.760898,-16.88 4.994509,-5.132972 5.792579,-5.295533 6.448848,-1.313583 0.383894,2.329297 -0.118416,9.940697 -0.931418,14.113583 -0.317587,1.630083 -0.4427,2.96 -0.278467,2.96 0.164026,0 2.235376,-1.008 4.602999,-2.24 2.367622,-1.232 4.653113,-2.24 5.078864,-2.24 1.527846,0 1.833369,1.993238 0.834006,5.441018 -2.212522,7.633126 -8.314928,15.925996 -15.874432,21.572579 -2.822672,2.108397 -9.162925,5.424777 -13.134553,6.870262 -3.013781,1.096874 -3.591066,1.715149 -4.366112,4.676141 -0.559995,2.139405 -0.676018,3.575939 -0.706191,8.743651 -0.03371,5.774074 0.005,6.213875 0.585058,6.64 1,0.734672 1.363717,0.539671 1.585982,-0.850297 0.250938,-1.569277 2.532677,-6.247024 4.396658,-9.013498 0.741099,-1.09992 3.381449,-4.051856 5.867446,-6.559856 3.56455,-3.596099 4.70033,-4.56 5.373114,-4.56 1.320713,0 1.645414,0.970992 1.605123,4.8 -0.05751,5.466013 -1.931203,13.388854 -4.476839,18.930192 l -1.125593,2.450189 1.644185,1.975689 c 4.525168,5.437542 8.567504,13.085452 10.090173,19.090122 0.638861,2.51936 0.640541,7.37172 0.004,11.62871 -0.272013,1.8192 -0.431814,3.47115 -0.355117,3.67102 0.08238,0.21468 1.101607,0.39646 2.49049,0.44419 1.293075,0.0444 2.924973,0.20974 3.626442,0.36735 0.701468,0.15761 1.304841,0.25712 1.340828,0.22113 0.03599,-0.036 -0.210876,-1.2159 -0.548588,-2.62201 -0.9325,-3.88262 -1.172352,-11.09128 -0.492186,-14.79238 1.083562,-5.89612 1.954029,-7.59083 3.530106,-6.87272 1.097296,0.49996 2.23447,2.60931 3.494764,6.48247 0.995732,3.06008 1.377197,4.79069 2.907492,13.19045 0.621635,3.41214 1.162486,5.06416 2.74863,8.3956 1.797184,3.7747 3.465366,6.15666 4.613738,6.58785 0.569734,0.21393 3.932633,0.43522 8.056236,0.53012 7.292525,0.16785 11.093741,-0.0948 16.040345,-1.10817 2.02915,-0.41571 2.72593,-0.45325 3.01666,-0.16253 0.86826,0.86826 -4.15268,2.01871 -11.621625,2.66287 -3.386752,0.29209 -5.647399,0.28871 -10.07633,-0.0151 -3.140486,-0.21541 -5.802858,-0.44905 -5.916378,-0.51921 -0.113523,-0.0702 -1.021683,0.3075 -2.01814,0.83923 -5.294973,2.82556 -11.68697,3.78914 -17.142804,2.58423 z m 11.12,-1.56497 c 1.1,-0.29051 1.999408,-0.60607 1.998685,-0.70127 -6.4e-4,-0.0952 -1.205421,-0.21003 -2.677104,-0.2552 -2.659613,-0.0816 -7.410656,-1.07896 -8.013984,-1.68228 -0.436346,-0.43635 0.139366,-0.40601 3.120553,0.16445 2.680548,0.51294 7.581703,0.6588 7.07585,0.21059 -0.321478,-0.28484 -4.776387,-1.29797 -13.744,-3.12564 -2.992,-0.6098 -5.872,-1.23657 -6.4,-1.39284 -0.528,-0.15626 -1.807197,-0.52053 -2.842659,-0.80948 -1.140183,-0.31817 -1.767047,-0.64097 -1.589504,-0.81852 0.426061,-0.42606 8.714765,1.08389 20.099568,3.66152 3.513075,0.7954 6.464848,1.36873 6.559497,1.27408 0.239485,-0.23948 -0.529606,-0.76236 -4.009363,-2.7258 -2.767725,-1.56169 -3.543587,-2.19396 -2.692208,-2.19396 0.178931,0 1.942931,0.79689 3.92,1.77087 l 3.594669,1.77086 -1.6,-1.45973 c -4.871734,-4.44465 -12.362688,-6.92061 -18.948586,-6.26302 -8.637827,0.86247 -15.131414,2.01802 -15.131414,2.69266 0,0.14639 5.038067,3.40836 5.264154,3.40836 0.06763,0 1.219248,0.64814 2.559148,1.44031 5.260253,3.10995 10.135492,5.05299 14.053962,5.60126 2.559971,0.35819 6.88705,0.0972 9.402736,-0.56722 z m 3.023421,-8.79793 c -0.191277,-0.23048 -0.787184,-1.51641 -1.324234,-2.85763 -1.000992,-2.49986 -1.584813,-4.86909 -3.060221,-12.41879 -1.216684,-6.2258 -3.333756,-12.16 -4.338179,-12.16 -0.300841,0 -0.947846,1.99457 -1.615142,4.97914 -0.858912,3.84158 -0.371101,12.45957 0.936288,16.54108 0.449363,1.40285 0.738909,1.77788 1.756323,2.27486 0.670042,0.32729 1.295891,0.51744 1.390781,0.42255 0.09489,-0.0949 -0.04846,-1.15467 -0.318541,-2.35508 -0.735472,-3.26883 -1.217018,-8.42841 -0.890614,-9.54255 0.368569,-1.25807 0.548374,-0.73942 0.998422,2.88 0.463309,3.7261 1.200442,7.30397 1.827862,8.87205 0.375335,0.93806 1.019175,1.59017 2.61114,2.6447 2.03198,1.346 2.760758,1.60486 2.026115,0.71967 z m -27.263421,-4.20835 2.08,-0.37104 -3.36,-0.71942 c -3.702,-0.79265 -10.548647,-2.83147 -11.018667,-3.28118 -0.599222,-0.57334 0.03552,-0.55904 2.22327,0.0501 2.331061,0.64901 8.990226,2.04386 11.185749,2.343 l 1.270352,0.17309 -1.04016,-0.63256 c -0.57209,-0.34791 -1.971747,-1.05496 -3.110352,-1.57123 -2.33543,-1.05894 -2.641034,-1.46786 -0.870192,-1.16439 l 1.2,0.20564 -1.15592,-1.09394 c -0.891133,-0.84335 -1.544214,-1.14734 -2.851024,-1.32707 -2.825584,-0.38862 -14.47152,-0.33068 -15.193056,0.0756 -0.620351,0.34929 -0.615439,0.36983 0.16,0.66895 0.44,0.16973 1.448,0.56365 2.24,0.87539 0.792,0.31174 3.239348,1.587 5.43855,2.83391 2.199202,1.24691 4.935204,2.58523 6.08,2.97405 2.157005,0.7326 2.404781,0.73117 6.72145,-0.0389 z m 4.759581,-3.46807 c -0.381386,-0.748 -1.001923,-1.864 -1.378973,-2.48 -1.134304,-1.85316 -3.678237,-7.513 -4.692272,-10.43957 -0.826762,-2.38608 -3.168336,-13.08232 -3.168336,-14.47287 0,-0.36388 0.09463,-0.40093 0.356118,-0.13944 0.195866,0.19586 0.981629,2.9503 1.746141,6.12097 0.764515,3.17067 1.914458,7.17922 2.555434,8.90788 1.084237,2.92411 3.687507,8.21232 5.270941,10.70722 l 0.682777,1.07581 -0.214893,-1.92 c -0.118192,-1.056 -0.57686,-3.648 -1.019267,-5.76 -0.442406,-2.112 -0.879318,-4.2 -0.970918,-4.64 -0.26185,-1.25781 0.414531,-0.3987 1.133715,1.44 0.344198,0.88 1.034835,3.364 1.534742,5.52 0.499911,2.156 1.001751,3.92 1.1152,3.92 0.366116,0 0.60288,-2.31379 0.606487,-5.92692 0.0026,-2.63613 -0.163229,-4.09095 -0.656685,-5.76 -0.363114,-1.2282 -0.733059,-2.59308 -0.822099,-3.03308 -0.379056,-1.87316 -4.416096,-9.30709 -6.777338,-12.48 -2.987347,-4.014245 -7.037705,-7.849317 -7.646729,-7.240293 -0.403636,0.403635 -0.786729,8.430873 -0.612791,12.840293 0.372429,9.44134 2.322035,15.39057 6.532771,19.9348 1.632733,1.76204 6.154871,5.1852 6.849879,5.1852 0.148237,0 -0.04252,-0.612 -0.423904,-1.36 z M 36.649349,110.30455 c 0,-0.23681 -0.756,-0.85842 -1.68,-1.38135 -1.692924,-0.9581 -5.270545,-4.42643 -4.923691,-4.77329 0.102727,-0.10272 0.761323,0.3323 1.463545,0.96671 1.579154,1.42667 3.685893,2.77627 4.333787,2.77627 0.328133,0 0.486359,-0.31543 0.486359,-0.96958 0,-0.78272 -0.619343,-1.64414 -3.213729,-4.46982 -3.658182,-3.984333 -4.604662,-4.788324 -9.237655,-7.846992 -1.832261,-1.209645 -3.176436,-2.251002 -2.987056,-2.314132 0.473383,-0.157792 4.579292,1.931082 7.199037,3.662503 1.188328,0.785379 3.413146,2.784726 4.944039,4.442991 1.530893,1.65827 2.898624,3.01503 3.039403,3.01503 0.547405,0 0.194146,-1.17884 -0.7192,-2.4 -1.319923,-1.76476 -5.54808,-6.023685 -6.881767,-6.931852 -0.604284,-0.411481 -1.099683,-0.85615 -1.100885,-0.98815 -0.0087,-0.958477 2.908249,1.048563 6.293284,4.330122 l 2.615471,2.535518 0.217315,-1.44916 c 0.279659,-1.864902 -0.198137,-2.525818 -3.368257,-4.659158 -5.072444,-3.413517 -8.343989,-4.456746 -15.2,-4.846973 -2.64,-0.150263 -5.431005,-0.430557 -6.202232,-0.622877 -0.771228,-0.19232 -1.472401,-0.279507 -1.558162,-0.193744 -0.08576,0.08576 0.520552,0.558755 1.347362,1.051101 5.03275,2.996877 11.097524,8.583123 15.072264,13.883023 3.00419,4.00577 4.446813,5.35531 7.332595,6.85948 2.109916,1.09976 2.728173,1.17326 2.728173,0.32433 z m 7.780032,-19.636888 c 2.010656,-5.592857 3.419968,-12.481984 3.419968,-16.717804 0,-1.37456 -0.130582,-2.579904 -0.290182,-2.678541 -0.272743,-0.168563 -6.68272,5.960275 -8.285818,7.922406 -3.367401,4.121568 -5.674444,8.309104 -6.115742,11.100739 -0.244464,1.546468 -0.21438,1.650176 0.659114,2.272157 1.024245,0.729328 1.054486,0.694461 1.374737,-1.585043 0.247842,-1.764102 0.994112,-3.568688 1.475799,-3.568688 0.225817,0 0.282146,0.218742 0.144206,0.56 -0.584157,1.445174 -0.907164,4.513891 -0.585146,5.559168 0.336704,1.092944 0.400188,1.055773 0.894832,-0.523971 0.08349,-0.26664 0.497512,-0.616243 0.920053,-0.77689 0.552528,-0.21007 0.832557,-0.635536 0.997264,-1.5152 0.491142,-2.623104 3.618947,-9.720144 4.835433,-10.97168 0.760032,-0.781929 0.574061,0.415783 -0.346694,2.232803 -2.020317,3.986906 -3.890419,10.074071 -3.309869,10.773591 0.485891,0.585462 0.729056,0.271577 1.228733,-1.586064 0.22609,-0.840535 0.535318,-1.605034 0.687174,-1.698887 0.352058,-0.21758 0.344496,1.907101 -0.01226,3.442407 -0.181862,0.782665 -0.154016,1.294349 0.08336,1.531721 0.520096,0.520096 0.934496,-0.18246 2.225034,-3.772224 z M 27.667841,64.913096 c -0.511263,-2.430118 -1.303863,-5.64552 -1.761334,-7.145331 -0.457472,-1.499815 -0.757525,-2.801178 -0.666786,-2.891917 0.4696,-0.4696 2.74079,5.802784 3.902296,10.77704 0.617334,2.643789 1.107332,3.551462 1.107332,2.051232 0,-0.526224 0.21589,-1.785626 0.479756,-2.798675 0.426439,-1.637213 0.426363,-2.100391 -6.72e-4,-4.16785 -0.600248,-2.905939 -2.111209,-7.08311 -3.546555,-9.804707 -1.221075,-2.315312 -4.181207,-6.4 -4.638014,-6.4 -0.170025,0 -0.289796,2.739072 -0.283351,6.48 0.01375,7.979453 0.425064,10.594128 2.244031,14.264957 1.366468,2.757645 1.803897,3.214745 1.259332,1.315961 -0.389052,-1.356547 -0.408348,-2.860918 -0.03669,-2.860918 0.152807,0 0.511886,0.828 0.797953,1.84 0.490207,1.734173 1.699711,4.131171 1.955488,3.875392 0.06423,-0.06423 -0.301519,-2.105062 -0.812781,-4.535184 z m 9.461508,-2.78792 c 2.27559,-2.489242 4.691539,-4.702666 8.019712,-7.34744 2.833421,-2.251616 8.60336,-6.404848 8.898032,-6.404848 0.595766,0 -0.01078,0.712374 -1.797744,2.111424 -3.088285,2.417875 -10.504474,8.82256 -12.262518,10.590019 -1.478132,1.486045 -4.514466,4.923475 -5.582366,6.319786 -0.261314,0.341673 0.820884,-0.330727 2.404884,-1.494227 3.199802,-2.350359 4.071552,-2.258973 1.449558,0.151958 -0.927582,0.852915 -1.60395,1.633315 -1.503041,1.734224 0.346035,0.346035 8.368321,-3.892768 10.931185,-5.775802 5.684365,-4.176521 11.029722,-10.79343 13.677232,-16.930774 2.091524,-4.848477 2.407258,-7.586176 0.804634,-6.976861 -1.677546,0.637802 -13.324118,7.229987 -15.945962,9.025722 -5.319798,3.6436 -10.81776,9.471901 -12.480145,13.229997 -0.366816,0.829248 -0.616409,1.558252 -0.554652,1.620009 0.06176,0.06176 0.957149,-0.961011 1.989761,-2.272816 1.920667,-2.439974 4.607334,-4.932659 5.316521,-4.932659 0.217949,0 -0.612249,1.061709 -1.844883,2.359354 -3.260916,3.432896 -5.081148,6.258473 -6.519702,10.120646 -0.193387,0.519197 0.294775,0.128275 1.390758,-1.113725 0.928805,-1.05255 2.552736,-2.858845 3.608736,-4.013987 z m -3.346327,-4.65216 c 0.700326,-1.017891 1.178715,-2.301571 1.580116,-4.24 0.836857,-4.041309 3.936473,-11.357978 5.719161,-13.500128 1.0385,-1.247901 0.806074,-0.222522 -0.569878,2.514112 -1.36832,2.721453 -3.318548,8.086768 -3.680639,10.125888 l -0.227293,1.28 2.30175,-2.24 c 2.540291,-2.472144 3.370508,-3.972371 5.755308,-10.4 1.438656,-3.877542 3.902317,-9.090512 4.458704,-9.434378 0.516605,-0.319278 0.436711,-0.04734 -1.444102,4.915498 -3.50311,9.243542 -3.760067,9.972278 -3.579846,10.152502 0.47094,0.470941 2.17839,-1.41416 3.108374,-3.431782 0.558192,-1.211011 1.095165,-2.20184 1.193277,-2.20184 0.09811,0 0.08957,0.648 -0.01898,1.44 -0.230035,1.678291 -0.04555,1.74847 1.699869,0.646637 0.901238,-0.568925 1.353331,-1.134711 1.598118,-2 1.612065,-5.69848 2.39137,-18.326637 1.130961,-18.326637 -0.461194,0 -6.75385,6.425469 -9.871645,10.08 -2.165139,2.537872 -4.827648,6.556941 -6.368238,9.612886 -1.910971,3.790637 -4.071854,12.220061 -4.077789,15.907114 -0.0013,0.836006 0.190179,0.702691 1.292772,-0.899872 z m 78.066328,82.233204 c 0,-0.27866 0.171,-0.44966 0.38,-0.38 0.59335,0.19779 0.69176,0.88667 0.12667,0.88667 -0.27867,0 -0.50667,-0.228 -0.50667,-0.50667 z m 3.68,-1.73333 c -0.26785,-0.4334 0.0936,-0.96 0.65889,-0.96 0.25361,0 0.46111,0.288 0.46111,0.64 0,0.6625 -0.772,0.88307 -1.12,0.32 z m -4.17723,-1.94788 c -0.32977,-0.53358 0.41191,-1.14544 0.85335,-0.704 0.36925,0.36925 0.13815,1.05188 -0.35612,1.05188 -0.15523,0 -0.37898,-0.15655 -0.49723,-0.34788 z m 8.61676,-1.08219 c -0.0969,-0.25261 -0.083,-0.61018 0.031,-0.79461 0.34701,-0.56147 1.12947,-0.37412 1.12947,0.27044 0,0.74575 -0.91657,1.15975 -1.16047,0.52417 z m 3.92097,-1.88236 c -0.24645,-0.58984 -0.89638,-1.39164 -1.4443,-1.78179 -1.10846,-0.7893 -1.28667,-1.54286 -0.4362,-1.84446 1.01473,-0.35986 1.66451,-1.13336 1.86935,-2.22525 0.28573,-1.52303 1.20469,-1.45245 1.59421,0.12244 0.23252,0.94008 0.55318,1.31918 1.48712,1.75813 1.34382,0.6316 1.33012,1.10606 -0.0548,1.89648 -0.62211,0.35507 -1.06487,0.96962 -1.32564,1.84 -0.47535,1.58657 -1.08921,1.67174 -1.68975,0.23445 z m -6.2805,0.13132 c 0,-0.80679 0.54867,-1.13306 1.115,-0.66304 0.58264,0.48355 0.26517,1.28415 -0.50924,1.28415 -0.38629,0 -0.60576,-0.22503 -0.60576,-0.62111 z m 13.26277,-1.64677 c -0.11825,-0.19134 -0.0673,-0.49559 0.11323,-0.67612 0.40372,-0.40372 1.024,-0.0628 1.024,0.56289 0,0.53875 -0.82356,0.62075 -1.13723,0.11323 z m 1.13723,-4.77212 c 0,-0.176 0.216,-0.32 0.48,-0.32 0.264,0 0.48,0.144 0.48,0.32 0,0.176 -0.216,0.32 -0.48,0.32 -0.264,0 -0.48,-0.144 -0.48,-0.32 z m -3.64037,-1.45211 c -0.10874,-0.28338 0.0183,-0.57161 0.29957,-0.67953 0.62611,-0.24027 0.91183,0.0486 0.67037,0.67784 -0.2429,0.63301 -0.72735,0.63385 -0.96994,0.002 z m 10.04037,-5.74789 c 0,-0.29333 0.1548,-0.48173 0.344,-0.41867 0.1892,0.0631 0.344,0.25147 0.344,0.41867 0,0.1672 -0.1548,0.3556 -0.344,0.41867 -0.1892,0.0631 -0.344,-0.12534 -0.344,-0.41867 z m -4.72,-1.84 c 0.0733,-0.22 0.32533,-0.4 0.56,-0.4 0.23467,0 0.48667,0.18 0.56,0.4 0.0793,0.23795 -0.14756,0.4 -0.56,0.4 -0.41244,0 -0.63932,-0.16205 -0.56,-0.4 z m 5.04,-1.54667 c 0,-0.77985 0.74777,-0.66962 0.90346,0.13319 0.0612,0.31576 -0.102,0.53348 -0.4,0.53348 -0.29684,0 -0.50346,-0.2736 -0.50346,-0.66667 z m -5.22,-0.18 c -0.45297,-0.45296 -0.19665,-1.07333 0.44346,-1.07333 0.44735,0 0.62977,0.17378 0.56,0.53348 -0.11422,0.58896 -0.66048,0.88284 -1.00346,0.53985 z m 7.68203,-0.63796 c -0.29863,-0.29864 0.0623,-0.75537 0.59686,-0.75537 0.25361,0 0.46111,0.216 0.46111,0.48 0,0.48199 -0.67552,0.65782 -1.05797,0.27537 z m 2.15441,-4.19537 c -0.2264,-0.91646 -0.57977,-1.35122 -1.49558,-1.84 -1.44769,-0.77266 -1.51177,-1.26279 -0.25034,-1.91509 1.08724,-0.56224 1.60948,-1.37655 1.60948,-2.50964 0,-1.44749 0.92886,-1.30098 1.59433,0.25149 0.38871,0.90683 0.95993,1.59931 1.58653,1.92335 1.27426,0.65894 1.23747,1.23425 -0.13052,2.04139 -0.69841,0.41207 -1.1827,0.98712 -1.30673,1.55161 -0.33199,1.51096 -0.42809,1.69689 -0.87713,1.69689 -0.23848,0 -0.567,-0.54 -0.73004,-1.2 z m -6.21644,0.4 c 0,-0.26667 0.28444,-0.48 0.64,-0.48 0.35556,0 0.64,0.21333 0.64,0.48 0,0.26667 -0.28444,0.48 -0.64,0.48 -0.35556,0 -0.64,-0.21333 -0.64,-0.48 z m -42.876539,-2.32 c 0.0019,-0.132 0.203799,-0.90001 0.44865,-1.70668 0.489373,-1.61226 0.258141,-3.73043 -0.58528,-5.36144 -1.371357,-2.651908 -6.243834,-5.177722 -12.754218,-6.611584 l -2.487385,-0.547828 -0.685207,0.913764 c -2.56942,3.426489 -6.646761,6.163448 -9.605411,6.447738 -2.090371,0.20086 -4.272445,-0.64559 -5.080505,-1.97078 -1.200573,-1.968898 -0.68218,-3.843125 1.501222,-5.427621 2.27519,-1.651107 4.462448,-2.2184 9.370771,-2.430422 l 4.286099,-0.185149 1.507898,-2.72 c 2.30847,-4.164099 2.318666,-3.98624 -0.254906,-4.446163 -5.546275,-0.991175 -8.566931,-4.951904 -6.968534,-9.137248 0.951008,-2.490179 4.673069,-5.047002 8.013664,-5.50488 1.793206,-0.245786 2.016806,0.396374 0.24968,0.717056 -4.700797,0.853059 -7.932829,6.115462 -6.074941,9.891235 0.539536,1.09649 1.629779,2.116966 2.773635,2.596138 1.211956,0.507699 4.743591,0.672492 5.114896,0.238668 0.129364,-0.151142 1.145076,-2.578806 2.257136,-5.394806 2.253117,-5.705421 3.951901,-8.871318 5.886349,-10.969946 3.882141,-4.211625 9.482926,-3.805916 9.482926,0.686922 0,1.41977 -0.836878,4.136486 -1.959377,6.360624 -2.047792,4.057539 -7.458566,8.50321 -12.165462,9.995542 l -2.276717,0.72184 -1.990445,3.860004 -1.990445,3.86 2.746093,0.856188 c 4.479638,1.396682 9.53305,4.251591 11.308717,6.388828 2.398867,2.88734 3.111158,6.89648 1.509785,8.49785 -0.613776,0.61378 -1.585424,0.84898 -1.578688,0.38215 z M 71.393576,99.899678 c 1.224192,-0.599417 2.64304,-1.684614 3.831162,-2.930233 2.199315,-2.305757 2.104534,-2.456403 -1.5692,-2.494064 -4.096483,-0.042 -8.742698,1.70256 -9.51776,3.573725 -0.488691,1.179808 -0.175453,1.785192 1.335536,2.581154 1.44047,0.75881 3.363027,0.52156 5.920262,-0.730582 z M 88.532293,82.55461 c 4.746016,-2.372567 8.89953,-7.327207 9.87672,-11.781722 0.456432,-2.080659 0.350365,-3.175587 -0.350134,-3.614442 -1.22554,-0.767779 -3.414442,0.694887 -5.845412,3.90601 -2.68703,3.54936 -7.608569,12.828432 -6.804089,12.828432 0.245222,0 1.650537,-0.602224 3.122915,-1.338278 z m 47.317057,25.65828 c 0,-0.35556 0.21333,-0.64 0.48,-0.64 0.26667,0 0.48,0.28444 0.48,0.64 0,0.35556 -0.21333,0.64 -0.48,0.64 -0.26667,0 -0.48,-0.28444 -0.48,-0.64 z m 1.11372,-3.21016 c -0.12428,-0.20108 -0.0754,-0.51618 0.10865,-0.70021 0.43005,-0.43005 1.43269,-0.0549 1.25772,0.47054 -0.17811,0.53494 -1.08364,0.68714 -1.36637,0.22967 z m 9.97091,-1.81187 c -0.38245,-0.38245 -0.20662,-1.05797 0.27537,-1.05797 0.264,0 0.48,0.2075 0.48,0.46111 0,0.53461 -0.45673,0.89549 -0.75537,0.59686 z m 0.64,-2.56 c -0.38245,-0.38245 -0.20662,-1.057972 0.27537,-1.057972 0.264,0 0.48,0.2075 0.48,0.461112 0,0.53461 -0.45673,0.89549 -0.75537,0.59686 z M 92.975656,97.574856 c -1.109104,-0.579331 -1.657481,-1.779107 -1.426944,-3.121968 0.105751,-0.616 0.828451,-2.751747 1.606,-4.746106 0.942563,-2.417609 1.348992,-3.884028 1.219491,-4.4 -0.184534,-0.735238 -0.12007,-0.773894 1.2905,-0.773894 1.052336,0 1.540732,0.14593 1.677017,0.501088 0.105757,0.275597 -0.700118,2.581776 -1.790832,5.124838 -2.182368,5.088324 -2.359651,6.307047 -0.941379,6.471485 1.051456,0.121907 2.50472,-1.491971 4.11984,-4.575165 0.616,-1.175916 1.228,-2.205977 1.360001,-2.289024 0.60107,-0.37816 0.1386,1.395812 -0.873995,3.352519 -1.930777,3.730966 -4.337532,5.449808 -6.239699,4.456227 z m 46.564134,-1.185075 c -0.28136,-0.455245 0.0774,-0.976893 0.67191,-0.976893 0.28037,0 0.44097,0.224819 0.38111,0.533482 -0.12464,0.64271 -0.76357,0.91175 -1.05302,0.443411 z m -4.82767,-1.644775 c -0.32977,-0.533574 0.41191,-1.145443 0.85335,-0.704 0.36925,0.369255 0.13815,1.051882 -0.35612,1.051882 -0.15523,0 -0.37898,-0.156547 -0.49723,-0.347882 z m 11.92335,-0.516579 c -0.083,-0.140547 -0.24854,-0.711283 -0.36793,-1.268304 -0.1575,-0.734784 -0.51916,-1.156112 -1.31763,-1.535014 -1.34236,-0.636986 -1.40262,-1.279584 -0.17934,-1.912167 0.98643,-0.510105 1.31878,-1.07638 1.31878,-2.247043 0,-0.963526 0.70765,-1.57736 1.22361,-1.061398 0.20702,0.207014 0.37639,0.623811 0.37639,0.926214 0,1.047888 0.40497,1.592515 1.66041,2.232989 1.33147,0.679267 1.47205,1.341046 0.3209,1.510605 -0.7996,0.117776 -1.98131,1.491088 -1.98131,2.30255 0,0.626906 -0.82098,1.446083 -1.05388,1.051568 z m 4.31042,-10.832441 c 0.14472,-0.695076 0.71264,-0.737607 0.84254,-0.0631 0.0675,0.350272 -0.0895,0.56 -0.41908,0.56 -0.30743,0 -0.48383,-0.206989 -0.42346,-0.496902 z M 96.18541,82.792238 c -0.648176,-0.781001 -0.275664,-2.207107 0.697824,-2.671516 1.193606,-0.569421 2.166115,-0.04241 2.166115,1.17383 0,1.583168 -1.947686,2.601706 -2.863939,1.497686 z m 47.66394,-2.89935 c 0,-0.264 0.216,-0.48 0.48,-0.48 0.264,0 0.48,0.216 0.48,0.48 0,0.264 -0.216,0.48 -0.48,0.48 -0.264,0 -0.48,-0.216 -0.48,-0.48 z m 3.98277,-0.187882 c -0.32977,-0.533574 0.41191,-1.145443 0.85335,-0.704 0.36925,0.369255 0.13815,1.051882 -0.35612,1.051882 -0.15523,0 -0.37898,-0.156547 -0.49723,-0.347882 z m -12.30277,-4.132118 c 0,-0.481968 0.16709,-0.654749 0.56,-0.579082 0.308,0.05932 0.56,0.319901 0.56,0.579082 0,0.259181 -0.252,0.519766 -0.56,0.579082 -0.39291,0.07567 -0.56,-0.09711 -0.56,-0.579082 z m -0.61504,-2.369923 c -0.45116,-0.54361 -0.2112,-1.150077 0.45504,-1.150077 0.69287,0 0.92296,0.654179 0.41037,1.166768 -0.40713,0.407136 -0.51539,0.40505 -0.86541,-0.0167 z m 11.62572,-1.271104 c -0.259,-0.674938 0.10454,-1.158973 0.87046,-1.158973 0.48344,0 0.61795,0.178176 0.54112,0.71673 -0.11934,0.836473 -1.13786,1.155568 -1.41158,0.442243 z m -6.73696,-1.703549 c -0.37287,-0.763306 -0.8529,-1.25233 -1.29048,-1.314634 -0.84522,-0.120352 -1.42794,-0.755868 -1.12494,-1.226873 0.12194,-0.189539 0.6897,-0.584407 1.2617,-0.877485 0.71407,-0.365872 1.04,-0.761837 1.04,-1.263488 0,-0.943261 0.75618,-1.976682 1.23146,-1.682947 0.20269,0.125277 0.37174,0.471277 0.37566,0.768889 0.01,0.750474 0.93896,1.783652 2.01802,2.24408 0.96095,0.410039 1.00674,0.961248 0.11581,1.394173 -0.29752,0.144573 -0.78335,0.380496 -1.07961,0.524275 -0.29626,0.14378 -0.70218,0.747085 -0.90205,1.340682 -0.50221,1.491594 -0.95012,1.516995 -1.64557,0.09333 z m 4.04628,-6.815424 c 0,-0.481968 0.16709,-0.654749 0.56,-0.579082 0.308,0.05932 0.56,0.319901 0.56,0.579082 0,0.259181 -0.252,0.519766 -0.56,0.579082 -0.39291,0.07567 -0.56,-0.09711 -0.56,-0.579082 z m -21.76,-1.44 c 0,-0.264 0.216,-0.48 0.48,-0.48 0.264,0 0.48,0.216 0.48,0.48 0,0.264 -0.216,0.48 -0.48,0.48 -0.264,0 -0.48,-0.216 -0.48,-0.48 z m 3.86301,-3.12 c -0.15579,-0.396 -0.4514,-1.549667 -0.65691,-2.563709 -0.47154,-2.326688 -1.47775,-3.547587 -3.35753,-4.073894 -1.86596,-0.522432 -1.96736,-1.377098 -0.24857,-2.095079 2.45884,-1.02712 3.81914,-2.990137 4.20146,-6.063056 0.14232,-1.143846 0.3521,-1.625273 0.74081,-1.700048 0.40436,-0.07778 0.62913,0.24666 0.88384,1.275738 0.7832,3.164365 1.01374,3.719517 2.03552,4.901536 0.58916,0.681558 1.56331,1.40479 2.16478,1.607184 1.64058,0.552042 1.54269,1.225856 -0.28865,1.986925 -1.89702,0.788368 -3.08489,2.244121 -3.59863,4.410198 -0.52202,2.200938 -0.8678,3.034205 -1.25913,3.034205 -0.18355,0 -0.46119,-0.324 -0.61699,-0.72 z m -12.42301,-0.135814 c -0.88887,-0.620048 -0.90969,-1.113332 -0.0787,-1.865364 0.53256,-0.481955 0.77826,-0.517964 1.44898,-0.212364 1.18381,0.539379 1.35175,1.306163 0.43967,2.007372 -0.9186,0.706218 -0.89947,0.705476 -1.80995,0.07036 z m 7.12,0.215814 c -0.23334,-0.377558 0.0693,-0.96 0.49889,-0.96 0.16561,0 0.30111,0.288 0.30111,0.64 0,0.674906 -0.46556,0.861133 -0.8,0.32 z m 15.98684,-2.90129 c -0.29451,-0.476528 0.047,-0.735612 0.65964,-0.500502 0.28275,0.108499 0.42446,0.342288 0.31492,0.519533 -0.25939,0.419693 -0.70884,0.410915 -0.97456,-0.01904 z m 7.73779,0.119258 c -0.38245,-0.382451 -0.20662,-1.057968 0.27537,-1.057968 0.264,0 0.48,0.207501 0.48,0.461114 0,0.534608 -0.45673,0.895491 -0.75537,0.596854 z m -34.38809,-1.87487 c 0.14472,-0.695076 0.71264,-0.737607 0.84254,-0.0631 0.0675,0.350272 -0.0895,0.56 -0.41908,0.56 -0.30743,0 -0.48383,-0.206989 -0.42346,-0.496902 z m 3.86346,-0.372948 c -0.64555,-0.231564 -0.45847,-1.05015 0.24,-1.05015 0.352,0 0.64,0.207501 0.64,0.461114 0,0.556553 -0.33864,0.783225 -0.88,0.589036 z m 27.54747,-0.91166 c -0.26671,-0.695028 0.41038,-1.348644 0.89502,-0.864 0.40961,0.409612 0.15586,1.36551 -0.36249,1.36551 -0.18705,0 -0.42669,-0.22568 -0.53253,-0.50151 z m -28.86613,-3.368656 c -0.64899,-0.604624 -0.67462,-0.737636 -0.26211,-1.36 0.6217,-0.937959 1.34549,-1.019434 2.17671,-0.245031 0.66293,0.617616 0.67054,0.686071 0.16241,1.461581 -0.64798,0.988944 -1.13349,1.022474 -2.07701,0.14345 z m 23.6754,-2.412119 c -0.8546,-0.598582 -0.86407,-1.448992 -0.0246,-2.208704 0.63706,-0.576534 0.67105,-0.571277 1.46963,0.227306 0.72348,0.723488 0.76887,0.895318 0.39474,1.494403 -0.57667,0.923398 -1.04118,1.046355 -1.83978,0.486995 z m -19.34714,-1.342912 c -0.68691,-0.759024 -0.66772,-1.110617 0.0985,-1.804016 0.76414,-0.691539 1.31696,-0.519849 1.91317,0.594186 0.40677,0.760048 0.39061,0.88808 -0.16518,1.308576 -0.82142,0.621459 -1.21368,0.600483 -1.84647,-0.09875 z m 5.2304,-0.854803 c 0,-0.264 0.216,-0.48 0.48,-0.48 0.264,0 0.48,0.216 0.48,0.48 0,0.264 -0.216,0.48 -0.48,0.48 -0.264,0 -0.48,-0.216 -0.48,-0.48 z m -8.96,-0.346666 c 0,-0.278668 0.171,-0.449667 0.38,-0.38 0.59335,0.197783 0.69176,0.886666 0.12667,0.886666 -0.27867,0 -0.50667,-0.228 -0.50667,-0.506666 z m 22.13654,-1.910236 c 0.14472,-0.695076 0.71264,-0.737607 0.84254,-0.0631 0.0675,0.350272 -0.0895,0.56 -0.41908,0.56 -0.30743,0 -0.48383,-0.206989 -0.42346,-0.496902 z m -21.91451,-0.347732 c -0.29863,-0.298636 0.0622,-0.755366 0.59686,-0.755366 0.25361,0 0.46111,0.216 0.46111,0.48 0,0.481994 -0.67552,0.657818 -1.05797,0.275366 z m 18.48102,-2.054099 c -0.44501,-0.491725 -0.51301,-0.790534 -0.26821,-1.178614 0.64673,-1.025283 1.32089,-1.218109 2.02643,-0.579603 0.81237,0.735187 0.83057,1.202246 0.0735,1.887353 -0.76506,0.692368 -1.11033,0.668026 -1.83175,-0.129136 z m -11.17135,-0.488326 c -0.5102,-0.778663 -0.50945,-0.862931 0.0128,-1.44 0.69832,-0.771645 1.14893,-0.771671 2.10006,-1.25e-4 l 0.75545,0.612816 -0.77578,0.827184 c -0.97607,1.040746 -1.41067,1.040771 -2.09253,1.25e-4 z m -11.14967,-0.977575 c -0.29863,-0.298636 0.0622,-0.755366 0.59686,-0.755366 0.25361,0 0.46111,0.216 0.46111,0.48 0,0.481994 -0.67552,0.657818 -1.05797,0.275366 z m 15.35797,-1.602032 c -0.45297,-0.452966 -0.19665,-1.073334 0.44346,-1.073334 0.44735,0 0.62977,0.173776 0.56,0.533482 -0.11422,0.588953 -0.66048,0.882835 -1.00346,0.539852 z m -11.356,-0.497334 c -0.55158,-0.551584 -0.47585,-1.03368 0.26814,-1.706989 0.63767,-0.577085 0.6714,-0.570691 1.52,0.288157 0.84674,0.85697 0.85275,0.889587 0.2467,1.340586 -0.75617,0.562716 -1.52096,0.592124 -2.03484,0.07825 z M 72.249349,34.717074 c -0.92769,-0.647127 -0.908096,-1.09592 0.08874,-2.032394 l 0.808736,-0.75977 0.842288,0.842285 c 0.814384,0.814384 0.824451,0.869504 0.303885,1.663991 -0.614915,0.938476 -1.025734,0.995945 -2.043649,0.285888 z m 46.320001,-0.264186 c 0,-0.264 0.216,-0.48 0.48,-0.48 0.264,0 0.48,0.216 0.48,0.48 0,0.264 -0.216,0.48 -0.48,0.48 -0.264,0 -0.48,-0.216 -0.48,-0.48 z M 64.211925,31.972443 c -0.289472,-0.540885 -0.308131,-0.981088 -0.06832,-1.611831 0.394361,-1.037253 0.99152,-1.105337 1.805539,-0.205856 0.546902,0.604322 0.557213,0.736282 0.118595,1.517736 -0.624777,1.113116 -1.357257,1.231506 -1.855811,0.299951 z m 52.580195,0.05256 c -0.11825,-0.191337 -0.0488,-0.514132 0.15444,-0.717325 0.27925,-0.279257 0.43915,-0.256652 0.655,0.0926 0.305,0.493497 0.1512,0.972604 -0.31221,0.972604 -0.15523,0 -0.37898,-0.156547 -0.49723,-0.347882 z m -4.89477,-0.276115 c 0.13751,-0.412523 0.57642,-0.486625 0.616,-0.104 0.0132,0.1276 -0.1488,0.2896 -0.36,0.36 -0.2112,0.0704 -0.3264,-0.0448 -0.256,-0.256 z M 77.968408,29.675441 c -0.242985,-0.964983 -0.663699,-1.635896 -1.317987,-2.10179 -1.161923,-0.827363 -1.214992,-1.356722 -0.190954,-1.90477 0.714007,-0.382125 1.49937,-1.603688 1.928519,-2.999643 0.305033,-0.992227 1.220413,-0.460122 1.703757,0.990383 0.308851,0.926859 0.755094,1.521695 1.386518,1.848217 1.148173,0.593744 1.226902,1.623989 0.161206,2.109552 -0.706416,0.321865 -1.49504,1.519579 -1.91968,2.915498 -0.09369,0.308 -0.445776,0.56 -0.782406,0.56 -0.456902,0 -0.702531,-0.359311 -0.968973,-1.417447 z m -8.474425,0.875414 c -0.360378,-0.360379 -0.219485,-0.737967 0.275366,-0.737967 0.264,0 0.48,0.135501 0.48,0.301115 0,0.403513 -0.499709,0.69251 -0.755366,0.436852 z m 16.670748,-1.889252 c -0.311408,-0.311407 0.116157,-1.088715 0.598855,-1.088715 0.245168,0 0.445763,0.288 0.445763,0.64 0,0.602427 -0.62321,0.870125 -1.044618,0.448715 z M 67.209349,27.892888 c -0.267853,-0.433395 0.09358,-0.96 0.658886,-0.96 0.253613,0 0.461114,0.288 0.461114,0.64 0,0.662498 -0.772003,0.88307 -1.12,0.32 z m 3.421334,-0.024 c 0.06307,-0.1892 0.251466,-0.344 0.418666,-0.344 0.1672,0 0.3556,0.1548 0.418666,0.344 0.06307,0.1892 -0.125332,0.344 -0.418666,0.344 -0.293334,0 -0.481734,-0.1548 -0.418666,-0.344 z m 38.223297,0.121967 c -0.36037,-0.360379 -0.21948,-0.737967 0.27537,-0.737967 0.264,0 0.48,0.135501 0.48,0.301115 0,0.403513 -0.49971,0.69251 -0.75537,0.436852 z m -14.260679,-1.725292 -0.776048,-0.646033 0.855238,-0.85524 0.855242,-0.85524 0.700822,0.700821 c 0.629696,0.629697 0.656765,0.783136 0.266733,1.511919 -0.519942,0.971525 -0.875373,0.998392 -1.901987,0.143773 z m 10.379269,0.352545 c -0.23601,-0.38188 0.0635,-0.96522 0.49566,-0.96522 0.38938,0 0.39191,0.866119 0.003,1.106334 -0.16384,0.101258 -0.38833,0.03776 -0.49888,-0.141114 z M 84.472117,26.265006 c -0.329766,-0.533574 0.411907,-1.145443 0.85335,-0.704 0.369255,0.369255 0.138151,1.051882 -0.356118,1.051882 -0.155226,0 -0.378979,-0.156547 -0.497232,-0.347882 z m 14.577232,-0.132118 c 0,-0.264 0.216,-0.48 0.48,-0.48 0.264,0 0.480001,0.216 0.480001,0.48 0,0.264 -0.216001,0.48 -0.480001,0.48 -0.264,0 -0.48,-0.216 -0.48,-0.48 z m -8.583462,-0.336903 c 0.144726,-0.695076 0.712646,-0.737607 0.842544,-0.0631 0.06746,0.350273 -0.08949,0.56 -0.419082,0.56 -0.307434,0 -0.48383,-0.206988 -0.423462,-0.496903 z m 17.080353,-0.115766 c -0.10303,-0.166709 -0.0509,-0.387407 0.11578,-0.490439 0.16671,-0.103032 0.38741,-0.05093 0.49044,0.115777 0.10303,0.166709 0.0509,0.387407 -0.11578,0.490439 -0.16671,0.103032 -0.38741,0.05093 -0.49044,-0.115777 z M 67.880824,24.727668 c -0.620633,-0.685792 -0.490109,-1.628572 0.318365,-2.299545 0.399578,-0.331619 0.60608,-0.281537 1.171811,0.284194 0.568071,0.56807 0.63304,0.839493 0.375939,1.570554 -0.385481,1.09611 -1.118553,1.270841 -1.866115,0.444797 z m 19.221859,-0.568113 c -0.430457,-0.430456 -0.196393,-1.066667 0.392429,-1.066667 0.607837,0 1.117034,0.730536 0.758855,1.088715 -0.255146,0.255147 -0.886173,0.243062 -1.151284,-0.02205 z m 10.986666,-0.106667 c 0,-0.176 0.144,-0.32 0.32,-0.32 0.176,0 0.32,0.144 0.32,0.32 0,0.176 -0.144,0.32 -0.32,0.32 -0.176,0 -0.32,-0.144 -0.32,-0.32 z"
       style="fill:#000000;stroke-width:0.31999999" />
  </g>
</svg>
